<?xml version="1.0" standalone="no"?>
<!DOCTYPE svg PUBLIC "-//W3C//DTD SVG 20010904//EN"
 "http://www.w3.org/TR/2001/REC-SVG-20010904/DTD/svg10.dtd">
<svg version="1.0" xmlns="http://www.w3.org/2000/svg"
 width="700.000000pt" height="700.000000pt" viewBox="0 0 700.000000 700.000000"
 preserveAspectRatio="xMidYMid meet">
<metadata>
Created by potrace 1.14, written by Peter Selinger 2001-2017
</metadata>
<g transform="translate(0.000000,700.000000) scale(0.100000,-0.100000)"
fill="#000000" stroke="none">
<path d="M865 5816 c-101 -32 -189 -106 -239 -201 l-31 -60 0 -1770 0 -1770
27 -55 c53 -109 143 -183 258 -214 l55 -15 -101 0 c-59 -1 -122 -7 -152 -16
-105 -32 -202 -140 -262 -297 -16 -42 -118 -292 -226 -555 l-196 -478 11 -58
c23 -133 99 -234 219 -290 l67 -32 3205 0 3205 0 67 32 c119 56 208 175 223
297 6 49 -1 69 -190 531 -108 264 -220 530 -250 590 -62 128 -125 204 -199
242 -45 24 -65 28 -171 31 l-120 4 55 15 c114 29 204 104 258 213 l27 55 0
1770 0 1770 -31 60 c-39 74 -116 148 -192 183 l-57 27 -2610 2 c-2085 1 -2618
-1 -2650 -11z m5042 -387 c40 -15 82 -57 104 -104 18 -38 19 -101 19 -1536 0
-1118 -3 -1505 -12 -1530 -18 -54 -49 -88 -103 -114 l-50 -25 -2376 2 -2376 3
-48 30 c-30 19 -56 45 -69 70 -21 40 -21 41 -24 1540 -2 1061 0 1511 8 1538
13 46 64 105 105 123 24 11 466 13 2412 14 1659 0 2390 -3 2410 -11z"/>
</g>
</svg>
