<svg width="190" height="76.923" viewBox="0 0 190 76.923" xmlns="http://www.w3.org/2000/svg"><g id="svgGroup" stroke-linecap="round" fill-rule="evenodd" font-size="9pt" stroke="#2dd4bf" stroke-width="2" fill="#cffafe" style="stroke:#2dd4bf;stroke-width:2;fill:#cffafe"><path d="M 69.231 76.923 L 69.231 0 L 115.385 0 L 115.385 11.538 L 80.769 11.538 L 80.769 32.692 L 115.385 32.692 L 115.385 44.231 L 80.769 44.231 L 80.769 65.385 L 115.385 65.385 L 115.385 76.923 L 69.231 76.923 Z M 148.077 76.923 L 119.231 0 L 132.308 0 L 154.615 59.385 L 176.923 0 L 190 0 L 161.231 76.923 L 148.077 76.923 Z M 61.538 76.923 L 0 76.923 L 0 65.385 L 7.692 65.385 L 7.692 11.538 L 0 11.538 L 0 0 L 61.538 0 L 61.538 76.923 Z M 19.231 11.538 L 19.231 65.385 L 50 65.385 L 50 11.538 L 19.231 11.538 Z" vector-effect="non-scaling-stroke"/></g></svg>