<?xml version="1.0" standalone="no"?>
<!DOCTYPE svg PUBLIC "-//W3C//DTD SVG 20010904//EN"
 "http://www.w3.org/TR/2001/REC-SVG-20010904/DTD/svg10.dtd">
<svg version="1.0" xmlns="http://www.w3.org/2000/svg"
 width="700.000000pt" height="700.000000pt" viewBox="0 0 700.000000 700.000000"
 preserveAspectRatio="xMidYMid meet">
<metadata>
Created by potrace 1.14, written by Peter Selinger 2001-2017
</metadata>
<g transform="translate(0.000000,700.000000) scale(0.100000,-0.100000)"
fill="#000000" stroke="none">
<path d="M925 5828 c-143 -15 -277 -125 -322 -262 -15 -47 -16 -199 -18 -1761
-1 -976 3 -1731 8 -1759 23 -131 128 -249 261 -294 l59 -20 -114 -4 c-103 -3
-119 -6 -167 -33 -30 -16 -73 -51 -97 -77 -40 -45 -113 -172 -130 -229 -6 -20
-310 -771 -350 -864 -48 -113 -56 -139 -52 -173 17 -157 121 -287 266 -332 62
-20 100 -20 3231 -20 3073 0 3170 1 3229 19 139 43 251 176 268 318 5 45 -4
71 -127 373 -72 179 -138 339 -145 355 -7 17 -39 92 -70 169 -123 303 -195
415 -301 466 -57 28 -75 31 -178 31 -88 0 -105 5 -50 15 48 9 142 65 183 110
49 53 87 125 98 190 5 28 9 787 8 1764 -1 1594 -3 1718 -19 1760 -49 129 -166
232 -292 256 -49 9 -5097 11 -5179 2z"/>
</g>
</svg>
