<?xml version="1.0" standalone="no"?>
<!DOCTYPE svg PUBLIC "-//W3C//DTD SVG 20010904//EN"
 "http://www.w3.org/TR/2001/REC-SVG-20010904/DTD/svg10.dtd">
<svg version="1.0" xmlns="http://www.w3.org/2000/svg"
 width="1520.000000pt" height="1520.000000pt" viewBox="0 0 1520.000000 1520.000000"
 preserveAspectRatio="xMidYMid meet">
<metadata>
Created by potrace 1.14, written by Peter Selinger 2001-2017
</metadata>
<g transform="translate(0.000000,1520.000000) scale(0.100000,-0.100000)"
fill="#000000" stroke="none">
<path d="M10 10206 l0 -464 300 1 c229 2 301 -1 304 -10 3 -7 5 -973 5 -2148
l0 -2135 -47 0 c-26 0 -163 -1 -304 -1 l-258 0 0 -464 0 -465 2463 0 2462 0 0
3075 0 3075 -2462 0 -2463 0 0 -464z m3976 -465 c15 -1 25 -39 13 -47 -5 -3
-7 -10 -3 -15 9 -15 10 -130 2 -135 -4 -3 -4 -15 0 -27 4 -12 6 -42 5 -67 -2
-25 -4 -49 -4 -55 0 -5 1 -27 3 -47 3 -21 1 -43 -3 -49 -3 -6 -3 -26 1 -45 4
-19 4 -34 -1 -34 -4 0 -5 -8 -2 -17 8 -21 8 -121 0 -130 -4 -3 -4 -10 0 -16 9
-15 9 -148 0 -154 -4 -2 -4 -9 0 -16 3 -6 6 -47 4 -91 -3 -104 -3 -93 1 -148
2 -26 -1 -44 -6 -41 -5 4 -6 0 -1 -7 6 -10 7 -71 4 -215 0 -5 1 -31 3 -57 2
-26 -1 -44 -6 -41 -5 4 -6 0 -1 -7 6 -10 7 -71 4 -215 0 -5 1 -31 3 -57 2 -26
-1 -44 -6 -41 -5 4 -6 0 -1 -7 6 -10 7 -71 4 -215 0 -5 1 -31 3 -57 2 -26 -1
-44 -6 -41 -5 4 -6 1 -1 -6 10 -17 12 -211 2 -211 -4 0 -4 -8 2 -17 5 -10 5
-26 1 -39 -5 -12 -6 -25 -3 -28 9 -9 9 -58 1 -84 -4 -13 -5 -21 0 -19 9 6 7
-76 -2 -91 -3 -6 -3 -13 1 -15 10 -6 9 -139 0 -154 -4 -7 -4 -14 1 -17 8 -5 6
-89 -3 -113 -2 -7 -1 -13 3 -13 9 0 7 -74 -3 -89 -3 -6 -3 -11 2 -11 4 0 8
-23 8 -50 0 -28 -4 -50 -8 -50 -5 0 -5 -5 -2 -11 11 -17 13 -73 3 -91 -5 -10
-5 -18 -1 -18 4 0 8 -20 8 -45 0 -25 -3 -45 -6 -45 -3 0 -3 -20 1 -45 4 -25 3
-48 -2 -51 -4 -3 -5 -10 -1 -17 8 -14 8 -110 -1 -125 -3 -6 -3 -13 1 -15 10
-6 9 -139 0 -154 -4 -7 -4 -14 1 -17 8 -5 6 -89 -3 -113 -2 -7 -1 -13 3 -13 9
0 7 -74 -3 -89 -3 -6 -3 -11 2 -11 4 0 8 -23 8 -50 0 -28 -4 -50 -8 -50 -5 0
-5 -5 -1 -11 10 -16 11 -99 1 -99 -4 0 -5 -5 -2 -11 10 -15 12 -80 3 -86 -5
-2 -6 -9 -3 -14 4 -5 -6 -9 -22 -9 -32 -1 -2342 -1 -2389 0 l-30 0 0 2138 c1
1175 4 2142 8 2147 4 7 416 9 1210 8 661 -1 1208 -2 1214 -2z"/>
<path d="M5540 10598 c-1 -95 -1 -6003 0 -6045 l0 -33 1850 0 1850 0 1 38 c0
40 0 872 -1 884 0 4 -543 7 -1207 7 -665 0 -1287 0 -1384 1 l-175 0 0 838 1
837 1378 1 c758 1 1380 4 1383 7 8 7 8 916 1 924 -4 3 -626 6 -1384 7 l-1378
1 -1 830 c0 457 1 835 3 840 2 7 469 10 1379 9 1158 -2 1376 0 1381 12 3 7 6
216 7 464 l1 450 -1852 0 -1853 0 0 -72z"/>
<path d="M9546 10643 c4 -16 10 -35 14 -43 5 -8 38 -96 75 -195 37 -99 78
-209 92 -245 14 -35 38 -98 53 -140 57 -156 131 -356 140 -375 5 -11 59 -155
120 -320 61 -165 114 -307 117 -315 4 -8 7 -17 8 -20 5 -14 18 -48 27 -70 5
-14 10 -26 10 -27 0 -1 20 -53 44 -115 24 -62 44 -116 44 -121 0 -4 7 -24 17
-45 9 -20 17 -39 18 -42 7 -26 45 -128 90 -245 5 -11 7 -23 7 -27 -1 -5 2 -8
6 -8 5 0 9 -6 9 -12 0 -11 175 -484 250 -678 14 -35 38 -98 53 -140 74 -202
91 -246 100 -262 5 -10 10 -26 10 -36 0 -10 4 -22 9 -27 5 -6 18 -39 30 -75
13 -35 25 -69 29 -75 4 -5 7 -14 9 -20 1 -5 14 -41 28 -80 14 -38 32 -86 39
-105 7 -19 37 -98 66 -175 29 -77 62 -167 75 -200 99 -268 119 -320 138 -365
6 -14 11 -29 13 -35 4 -17 94 -257 116 -310 11 -27 24 -61 28 -75 5 -14 19
-54 33 -90 13 -36 54 -146 91 -245 37 -99 72 -191 78 -205 5 -14 30 -79 54
-145 25 -66 47 -127 51 -135 3 -8 7 -17 7 -20 1 -3 19 -50 40 -105 20 -55 42
-112 48 -127 l10 -28 534 0 533 0 13 42 c6 24 15 45 18 48 3 3 11 21 17 40 6
19 23 67 38 105 14 39 35 95 45 125 11 30 24 64 29 75 6 11 28 72 51 135 23
63 48 130 56 148 8 17 21 51 29 75 19 57 44 128 54 152 5 11 14 36 21 55 7 19
16 44 21 55 10 24 180 476 183 490 2 6 7 21 13 35 6 14 20 52 32 85 12 33 25
69 30 80 5 11 30 79 56 150 27 72 54 144 60 160 7 17 20 53 30 80 10 28 23 64
30 80 12 30 48 125 51 135 0 3 4 14 8 25 5 11 17 45 28 75 12 30 24 64 29 75
5 11 31 83 59 160 29 77 54 147 57 155 4 8 7 17 8 20 1 3 5 14 10 25 7 17 46
120 73 195 5 14 10 28 11 32 1 4 9 25 18 45 8 21 28 72 43 113 23 65 120 326
137 370 3 8 7 20 9 25 6 23 29 80 34 85 3 3 6 10 7 15 1 6 29 84 63 175 34 91
63 170 64 175 1 6 6 17 11 25 5 8 10 20 11 25 1 6 27 78 59 160 31 83 58 155
59 160 2 6 8 21 13 35 6 14 21 54 33 90 13 36 28 71 33 78 5 6 7 12 4 12 -3 0
8 33 24 73 17 39 32 79 34 87 3 15 108 296 124 335 5 11 14 36 21 55 7 19 18
49 25 65 7 17 24 62 38 100 33 92 156 424 167 450 4 11 13 36 20 55 7 19 16
44 21 55 14 31 59 159 59 168 0 4 -237 6 -527 5 l-527 -3 -57 -150 c-32 -82
-58 -158 -58 -167 -1 -10 -6 -18 -13 -18 -6 0 -9 -3 -6 -6 5 -5 -3 -29 -47
-139 -4 -11 -9 -24 -11 -30 -13 -43 -50 -141 -54 -145 -4 -4 -47 -119 -54
-145 -2 -5 -7 -21 -13 -35 -6 -14 -29 -77 -52 -140 -24 -63 -46 -124 -51 -135
-4 -11 -13 -33 -19 -48 -6 -16 -27 -72 -47 -125 -40 -107 -75 -200 -128 -339
-20 -51 -36 -99 -36 -106 0 -7 -4 -17 -9 -23 -4 -5 -32 -74 -61 -154 -29 -80
-58 -158 -65 -175 -7 -16 -18 -46 -25 -65 -7 -19 -16 -44 -21 -55 -5 -11 -29
-76 -55 -145 -121 -328 -168 -454 -185 -495 -5 -11 -45 -119 -90 -240 -44
-121 -89 -239 -100 -262 -10 -24 -19 -46 -19 -50 0 -8 -46 -133 -95 -258 -13
-33 -40 -105 -60 -160 -20 -55 -40 -109 -45 -120 -5 -11 -36 -94 -70 -185 -33
-91 -63 -172 -67 -180 -3 -8 -7 -19 -9 -25 -3 -11 -91 -242 -101 -265 -3 -8
-7 -17 -7 -20 -1 -3 -10 -28 -21 -57 -15 -41 -22 -50 -32 -41 -7 6 -13 19 -13
29 0 11 -4 27 -10 37 -9 16 -36 88 -125 327 -66 178 -86 230 -95 250 -5 11
-16 40 -24 65 -8 25 -24 66 -35 93 -11 26 -21 51 -22 55 -3 12 -10 33 -50 137
-20 55 -54 145 -74 200 -21 55 -51 134 -67 175 -17 41 -32 82 -33 90 -2 8 -18
51 -35 95 -17 44 -35 91 -40 105 -4 14 -31 86 -60 160 -29 74 -53 140 -55 145
-1 6 -7 24 -14 40 -6 17 -34 91 -62 165 -28 74 -62 164 -76 200 -14 35 -26 69
-28 75 -1 5 -7 21 -13 35 -9 21 -21 51 -27 70 -1 3 -4 12 -8 20 -3 8 -22 60
-42 115 -20 55 -47 127 -60 160 -13 33 -72 188 -130 345 -59 157 -125 332
-147 390 -21 58 -43 117 -48 131 -4 15 -15 42 -23 60 -8 19 -19 48 -25 64 -6
17 -14 39 -18 50 -4 11 -8 22 -9 25 -2 11 -46 127 -55 145 -5 11 -25 65 -45
120 -20 55 -45 122 -57 150 -11 27 -21 54 -23 60 -1 5 -7 24 -14 40 -6 17 -16
44 -22 60 -6 17 -15 39 -19 50 -4 11 -21 55 -36 97 l-29 78 -528 0 -527 0 6
-27z"/>
</g>
</svg>
